<svg viewBox="0 0 50 50" xml:space="preserve" xmlns="http://www.w3.org/2000/svg"><path fill="none" d="M0 0h50v50H0z"></path><path d="M32 35h9.098a7.902 7.902 0 1 0 0-15.803c-.02 0-.038.003-.058.003.061-.494.103-.994.103-1.504 0-6.71-5.439-12.15-12.15-12.15-5.229 0-9.672 3.309-11.386 7.941a6.008 6.008 0 0 0-10.26 4.244c0 .085.01.167.013.251C3.695 18.995 1 22.344 1 26.331A8.669 8.669 0 0 0 9.67 35H18" fill="none" stroke="#000000" stroke-linecap="round" stroke-linejoin="round" stroke-miterlimit="10" stroke-width="2" class="stroke-000000"></path><path fill="none" stroke="#000000" stroke-linecap="round" stroke-miterlimit="10" stroke-width="2" d="m30 41-5 5-5-5M25 26v19.668" class="stroke-000000"></path></svg>